<?xml version="1.0" encoding="UTF-8" standalone="no"?>
<svg
   xmlns:dc="http://purl.org/dc/elements/1.1/"
   xmlns:cc="http://creativecommons.org/ns#"
   xmlns:rdf="http://www.w3.org/1999/02/22-rdf-syntax-ns#"
   xmlns:svg="http://www.w3.org/2000/svg"
   xmlns="http://www.w3.org/2000/svg"
   height="239.92332"
   width="346.45599"
   id="svg2"
   version="1.1">
  <metadata
     id="metadata73">
    <rdf:RDF>
      <cc:Work
         rdf:about="">
        <dc:format>image/svg+xml</dc:format>
        <dc:type
           rdf:resource="http://purl.org/dc/dcmitype/StillImage" />
        <dc:title></dc:title>
      </cc:Work>
    </rdf:RDF>
  </metadata>
  <g
     id="g4"
     transform="translate(-67.384,-13.112)">
    <g
       id="g6"
       clip-path="url(#cp1)">
      <clipPath
         id="cp1">
        <polygon
           id="polygon9"
           points="367,42 70,42 70,226 367,226 " />
      </clipPath>
      <polyline
         style="fill:none;stroke:#000000;stroke-width:1px;stroke-opacity:1"
         id="polyline11"
         points="101.915,146.218 101.994,146.206 102.074,146.194 102.233,146.17 102.55,146.123 103.186,146.027 104.458,145.834 107.001,145.448 112.516,144.604 117.665,143.805 122.713,143.013 128.189,142.14 133.3,141.311 138.838,140.397 144.275,139.48 149.347,138.606 154.847,137.633 159.982,136.699 165.015,135.756 170.476,134.697 175.572,133.67 181.096,132.509 186.518,131.312 191.576,130.139 197.061,128.793 202.18,127.46 207.728,125.92 213.174,124.301 218.255,122.685 223.764,120.808 228.908,118.934 233.95,116.979 239.421,114.726 244.526,112.503 250.058,109.969 255.49,107.364 260.556,104.839 266.051,102.007 271.179,99.2857 276.207,96.5539 281.663,93.5266 286.753,90.6507 292.271,87.4843 297.424,84.4878 302.475,81.5176 307.955,78.2642 313.069,75.2018 318.611,71.8584 324.051,68.554 329.127,65.4543 334.63,62.0768 339.768,58.9097 344.805,55.7933 350.27,52.4006 355.369,49.2251 355.458,49.1696 355.547,49.1142 355.725,49.0032 356.08,48.7813 356.792,48.3374 358.215,47.449 358.304,47.3934 358.393,47.3379 358.571,47.2268 358.927,47.0046 359.638,46.56 359.727,46.5044 359.816,46.4488 359.994,46.3376 360.35,46.1152 360.439,46.0596 360.528,46.004 360.705,45.8928 360.794,45.8372 360.883,45.7816 360.972,45.726 361.061,45.6704 " />
      <polyline
         style="fill:none;stroke:#000000;stroke-width:1px;stroke-opacity:1"
         id="polyline13"
         points="101.915,219.273 101.994,219.224 102.074,219.174 102.233,219.075 102.55,218.876 103.186,218.478 104.458,217.684 107.001,216.096 112.516,212.661 117.665,209.464 122.713,206.34 128.189,202.963 133.3,199.826 138.838,196.442 144.275,193.14 149.347,190.079 154.847,186.783 159.982,183.733 165.015,180.77 170.476,177.592 175.572,174.664 181.096,171.539 186.518,168.527 191.576,165.777 197.061,162.866 202.18,160.226 207.728,157.461 213.174,154.854 218.255,152.528 223.764,150.129 228.908,148.012 233.95,146.054 239.421,144.062 244.526,142.323 250.058,140.564 255.49,138.954 260.556,137.548 266.051,136.116 271.179,134.858 276.207,133.688 281.663,132.482 286.753,131.408 292.271,130.292 297.424,129.29 302.475,128.34 307.955,127.342 313.069,126.436 318.611,125.479 324.051,124.561 329.127,123.722 334.63,122.829 339.768,122.009 344.805,121.217 350.27,120.369 355.369,119.588 355.458,119.574 355.547,119.561 355.725,119.534 356.08,119.479 356.792,119.371 358.215,119.155 358.304,119.142 358.393,119.128 358.571,119.101 358.927,119.048 359.638,118.94 359.727,118.927 359.816,118.913 359.994,118.886 360.35,118.833 360.439,118.819 360.528,118.806 360.705,118.779 360.794,118.766 360.883,118.752 360.972,118.739 361.061,118.725 " />
      <polyline
         style="fill:none;stroke:#000000;stroke-width:1px;stroke-dasharray:4, 4;stroke-opacity:1"
         id="polyline15"
         points="101.915,149.23 101.994,149.22 102.074,149.209 102.233,149.189 102.55,149.148 103.186,149.065 104.458,148.901 107.001,148.572 112.516,147.859 117.665,147.193 122.713,146.54 128.189,145.832 133.3,145.171 138.838,144.454 144.275,143.751 149.347,143.095 154.847,142.384 159.982,141.72 165.015,141.069 170.476,140.363 175.572,139.704 181.096,138.989 186.518,138.288 191.576,137.634 197.061,136.924 202.18,136.262 207.728,135.545 213.174,134.84 218.255,134.183 223.764,133.471 228.908,132.806 233.95,132.153 239.421,131.446 244.526,130.786 250.058,130.07 255.49,129.368 260.556,128.712 266.051,128.002 271.179,127.338 276.207,126.688 281.663,125.983 286.753,125.324 292.271,124.611 297.424,123.944 302.475,123.291 307.955,122.582 313.069,121.921 318.611,121.204 324.051,120.5 329.127,119.844 334.63,119.132 339.768,118.468 344.805,117.816 350.27,117.11 355.369,116.45 355.458,116.439 355.547,116.427 355.725,116.404 356.08,116.358 356.792,116.266 358.215,116.082 358.304,116.07 358.393,116.059 358.571,116.036 358.927,115.99 359.638,115.898 359.727,115.886 359.816,115.875 359.994,115.852 360.35,115.806 360.439,115.794 360.528,115.783 360.705,115.76 360.794,115.748 360.883,115.737 360.972,115.725 361.061,115.714 " />
      <polyline
         style="fill:none;stroke:#000000;stroke-width:1px;stroke-dasharray:4, 4;stroke-opacity:1"
         id="polyline17"
         points="101.915,216.262 101.994,216.21 102.074,216.159 102.233,216.056 102.55,215.851 103.186,215.44 104.458,214.617 107.001,212.973 112.516,209.406 117.665,206.077 122.713,202.812 128.189,199.271 133.3,195.966 138.838,192.385 144.275,188.869 149.347,185.589 154.847,182.032 159.982,178.712 165.015,175.457 170.476,171.926 175.572,168.631 181.096,165.059 186.518,161.552 191.576,158.282 197.061,154.735 202.18,151.424 207.728,147.837 213.174,144.315 218.255,141.029 223.764,137.466 228.908,134.14 233.95,130.88 239.421,127.342 244.526,124.041 250.058,120.463 255.49,116.951 260.556,113.674 266.051,110.121 271.179,106.805 276.207,103.554 281.663,100.026 286.753,96.7341 292.271,93.1658 297.424,89.8338 302.475,86.5672 307.955,83.0238 313.069,79.7168 318.611,76.1331 324.051,72.6146 329.127,69.3326 334.63,65.7738 339.768,62.4513 344.805,59.1942 350.27,55.6604 355.369,52.3629 355.458,52.3053 355.547,52.2478 355.725,52.1328 356.08,51.9027 356.792,51.4426 358.215,50.5224 358.304,50.4648 358.393,50.4073 358.571,50.2923 358.927,50.0622 359.638,49.6021 359.727,49.5446 359.816,49.4871 359.994,49.372 360.35,49.142 360.439,49.0845 360.528,49.0269 360.705,48.9119 360.794,48.8544 360.883,48.7969 360.972,48.7394 361.061,48.6819 " />
    </g>
    <g
       id="g19"
       clip-path="url(#cp2)">
      <clipPath
         id="cp2">
        <polygon
           id="polygon22"
           points="416,5 66,5 66,257 416,257 " />
      </clipPath>
      <polyline
         style="fill:none;stroke:#000000;stroke-width:0.2px;stroke-opacity:1"
         id="polyline24"
         points="231.488,221.848 231.488,218.341 " />
    </g>
    <g
       id="g26"
       clip-path="url(#cp3)"
       transform="translate(220.98794,224.84789)">
      <clipPath
         id="cp3">
        <polygon
           id="polygon29"
           points="22.0121,-1.84789 -1.98794,-1.84789 -1.98794,32.1521 22.0121,32.1521 " />
      </clipPath>
      <text
         style="font-style:italic;font-size:24px;font-family:Times;fill:#000000"
         id="text31"
         font-style="italic"
         font-size="24px"
         y="24"
         x="1">z</text>
      <text
         style="font-style:italic;font-size:17.04000092px;font-family:Times;fill:#000000"
         id="text33"
         font-style="italic"
         font-size="17.04px"
         y="28"
         x="11">c</text>
    </g>
    <g
       id="g35"
       clip-path="url(#cp4)">
      <clipPath
         id="cp4">
        <polygon
           id="polygon38"
           points="416,5 66,5 66,257 416,257 " />
      </clipPath>
      <polyline
         style="fill:none;stroke:#000000;stroke-width:0.2px;stroke-opacity:1"
         id="polyline40"
         points="70.0612,221.848 367,221.848 " />
    </g>
    <g
       id="g42"
       clip-path="url(#cp5)"
       transform="translate(375,206.34789)">
      <clipPath
         id="cp5">
        <polygon
           id="polygon45"
           points="41,-1.34789 -1,-1.34789 -1,32.6521 41,32.6521 " />
      </clipPath>
      <text
         style="font-size:24px;font-family:Times;fill:#000000"
         id="text47"
         font-size="24px"
         y="24"
         x="1">z</text>
      <text
         style="font-size:24px;font-family:Times;fill:#000000"
         id="text49"
         font-size="24px"
         y="24"
         x="13">(</text>
      <text
         style="font-size:24px;font-family:Times;fill:#000000"
         id="text51"
         font-size="24px"
         y="24"
         x="23">t</text>
      <text
         style="font-size:24px;font-family:Times;fill:#000000"
         id="text53"
         font-size="24px"
         y="24"
         x="32">)</text>
    </g>
    <g
       id="g55"
       clip-path="url(#cp6)">
      <clipPath
         id="cp6">
        <polygon
           id="polygon58"
           points="416,5 66,5 66,257 416,257 " />
      </clipPath>
      <polyline
         style="fill:none;stroke:#000000;stroke-width:0.2px;stroke-opacity:1"
         id="polyline60"
         points="76,225.518 76,42 " />
    </g>
    <g
       id="g62"
       clip-path="url(#cp7)"
       transform="translate(66,5)">
      <clipPath
         id="cp7">
        <polygon
           id="polygon65"
           points="21,0 0,0 0,32 21,32 " />
      </clipPath>
      <text
         style="font-size:24px;font-family:Times;fill:#000000"
         id="text67"
         font-size="24px"
         y="24"
         x="1">V</text>
    </g>
  </g>
  <defs
     id="defs69" />
</svg>
